<?xml version="1.0" encoding="utf-8"?>
<!-- Generator: Adobe Illustrator 16.0.0, SVG Export Plug-In . SVG Version: 6.00 Build 0)  -->
<!DOCTYPE svg PUBLIC "-//W3C//DTD SVG 1.1//EN" "http://www.w3.org/Graphics/SVG/1.1/DTD/svg11.dtd">
<svg version="1.1" xmlns="http://www.w3.org/2000/svg" xmlns:xlink="http://www.w3.org/1999/xlink" x="0px" y="0px"
	 width="1704.4px" height="1399.2px" viewBox="0 0 1704.4 1399.2" enable-background="new 0 0 1704.4 1399.2" xml:space="preserve">
<g id="Layer_1">
	<rect id="Background" fill="#FFED91" width="1704.4" height="1399.5"/>
</g>
<g id="Layer_2">
	<g>
		<path fill="#61DCEC" d="M793.4,416.4c0,0,15.7-288.2,84.6-256.9c68.9,31.3,112.8,184.8,68.9,354
			C903,682.7,821.6,582.4,793.4,416.4z"/>
		<g>
			<g>
				<path fill="#61DCEC" d="M833,664.1c0,0,303.1-331.9,410.9-198.7c0,0,89.5,281.2-415.9,272.5S833,664.1,833,664.1z"/>
				<path fill="#61DCEC" d="M1223.2,476.6c0,0-19.3-68-159.5,8.9c0,0-215.9,152.9-157.7,185.3c58.2,32.5,254.3,3,312.6-88.3
					C1218.7,582.5,1242.5,544.7,1223.2,476.6z"/>
				<path fill="#98F9FC" d="M1041.3,595.9c0,0-97.3,51-63.3,65.2c33.9,14.3,198.6-16.4,222.8-74.1S1041.3,595.9,1041.3,595.9z"/>
				<path fill="#98F9FC" d="M1185.9,461c0,0-153.7,71.2-117.8,90.3C1104,570.3,1251.8,484.7,1185.9,461z"/>
				<path fill="#98F9FC" d="M1207,505.8c0,0-57.3,31.8-40.3,39C1183.6,551.9,1221.3,547.7,1207,505.8z"/>
				<path fill="#98F9FC" d="M1083.6,485.9c0,0-126.5,82.6-102.8,92.6s90.9,2.2,73.4-13.1S1043.8,533,1083.6,485.9z"/>
			</g>
			<circle fill="#F0FCFF" cx="1209" cy="479.6" r="17.5"/>
			<circle fill="#F0FCFF" cx="1057.4" cy="538.7" r="12.9"/>
			<circle fill="#F0FCFF" cx="1222.2" cy="574" r="9.2"/>
		</g>
		<g>
			<g>
				<path fill="#61DCEC" d="M854.3,601c0,0,171.3-480.5,342.6-388.5c0,0,217.3,254.9-315.4,467.9C348.8,893.5,854.3,601,854.3,601z"
					/>
				<path fill="#78F0FC" d="M1180.2,233.4c0,0-50.1-62.7-162.9,79.4c0,0-158.8,254.9-83.6,263.2c75.2,8.4,267.4-108.6,288.3-229.8
					C1222,346.2,1230.3,296,1180.2,233.4z"/>
				<path fill="#98F9FC" d="M1042.3,438.1c0,0-79.4,96.1-37.6,96.1s200.5-104.4,200.5-175.5C1205.3,287.7,1042.3,438.1,1042.3,438.1
					z"/>
				<path fill="#98F9FC" d="M1134.3,233.4c0,0-129.5,142-83.6,146.2C1096.7,383.8,1213.6,229.2,1134.3,233.4z"/>
				<path fill="#98F9FC" d="M1176,271c0,0-46,58.5-25.1,58.5S1209.5,308.6,1176,271z"/>
				<path fill="#98F9FC" d="M1038.2,304.4c0,0-96.1,142-66.8,142c29.2,0,96.1-37.6,71-46S1017.3,371.2,1038.2,304.4z"/>
			</g>
			<circle fill="#F0FCFF" cx="1166.6" cy="242.8" r="19.8"/>
			<circle fill="#F0FCFF" cx="1034" cy="371.2" r="14.6"/>
			<circle fill="#F0FCFF" cx="1222" cy="335.7" r="10.4"/>
		</g>
		<g>
			
				<linearGradient id="SVGID_1_" gradientUnits="userSpaceOnUse" x1="-470.7412" y1="3224.1353" x2="-300.6523" y2="3224.1353" gradientTransform="matrix(0.9003 -0.4352 0.4352 0.9003 -843.6093 -2697.198)">
				<stop  offset="0" style="stop-color:#F6BB31"/>
				<stop  offset="1" style="stop-color:#F8EC8C"/>
			</linearGradient>
			<path fill="url(#SVGID_1_)" d="M289.6,501.2L70.9,276.6l261.9,151C332.8,427.6,339.6,477,289.6,501.2z"/>
			<path fill="#F6C13B" d="M103.5,303.9l184,189c0,0,20-3,30-18.5L103.5,303.9z"/>
			<g>
				<defs>
					<path id="SVGID_2_" d="M289.6,501.2L70.9,276.6l261.9,151C332.8,427.6,339.6,477,289.6,501.2z"/>
				</defs>
				<clipPath id="SVGID_3_">
					<use xlink:href="#SVGID_2_"  overflow="visible"/>
				</clipPath>
				<path clip-path="url(#SVGID_3_)" fill="#E5980E" d="M128.4,263.7c0,0,7.1,75.8-35,108.2l30.3,40.4c0,0,57.3-81.4,37.7-152.5
					L128.4,263.7z"/>
				<path clip-path="url(#SVGID_3_)" fill="#E5980E" d="M186.1,311c0,0,7.1,75.8-35,108.2l30.3,40.4c0,0,57.3-81.4,37.7-152.5
					L186.1,311z"/>
				<path clip-path="url(#SVGID_3_)" fill="#E5980E" d="M245,353.2c0,0,7.1,75.8-35,108.2l30.3,40.4c0,0,57.3-81.4,37.7-152.5
					L245,353.2z"/>
				<path clip-path="url(#SVGID_3_)" fill="#E5980E" d="M314.3,400.3c0,0,7.1,75.8-35,108.2l30.3,40.4c0,0,57.3-81.4,37.7-152.5
					L314.3,400.3z"/>
			</g>
		</g>
		<g>
			<path fill="#F7A9B0" d="M692.1,527.5c0,0-68.9-65.8-94-119S419.5,254.9,313,395.9c0,0-59.5,90.9-28.2,169.2
				c0,0-94,59.5-65.8,100.2c0,0-3.1,94,137.8,56.4c0,0,37.6,34.5,87.7,3.1c0,0,68.9,18.8,141-47c0,0,28.2,103.4,0,147.2
				s-28.2,175.4,53.3,206.8c0,0,241.2,106.5,441.7-15.7c0,0,115.9,65.8,222.4-6.3c0,0,65.8,34.5,84.6,50.1c0,0,68.9-1,78.3-51.2
				c0,0-181.7-149.3-191.1-265.2c0,0-34.5-115.9-219.3-87.7C1055.5,655.9,867.5,724.8,692.1,527.5z"/>
			<g>
				<linearGradient id="SVGID_4_" gradientUnits="userSpaceOnUse" x1="1263.2031" y1="774.1304" x2="1406.5453" y2="692.9028">
					<stop  offset="9.544403e-02" style="stop-color:#CE3F5A"/>
					<stop  offset="0.3895" style="stop-color:#ED5084"/>
					<stop  offset="1" style="stop-color:#EF88B9"/>
				</linearGradient>
				<path fill="url(#SVGID_4_)" d="M1201.1,689.8c0,0,59.5-178.6,209.9-28.2c0,0,68.9,65.8,65.8,122.2c0,0-56.4,106.5-112.8,62.7
					c-56.4-43.9-6.3-188-131.6-115.9C1107.2,802.6,1201.1,689.8,1201.1,689.8z"/>
				<linearGradient id="SVGID_5_" gradientUnits="userSpaceOnUse" x1="1468.5264" y1="1035.4312" x2="1426.9823" y2="1095.8271">
					<stop  offset="7.676977e-02" style="stop-color:#487E9F"/>
					<stop  offset="0.2314" style="stop-color:#79A6D9"/>
					<stop  offset="0.625" style="stop-color:#77AEC5"/>
					<stop  offset="0.7008" style="stop-color:#8CB4C6"/>
					<stop  offset="0.8012" style="stop-color:#A0B9C6"/>
					<stop  offset="0.9013" style="stop-color:#ACBDC7"/>
					<stop  offset="1" style="stop-color:#B0BEC7"/>
				</linearGradient>
				<path fill="url(#SVGID_5_)" d="M1393.8,1069l42.3,39.2c0,0,59.5-3.1,67.4-64.2l4.7-9.4l-53.3-21.9L1393.8,1069z"/>
				
					<linearGradient id="SVGID_6_" gradientUnits="userSpaceOnUse" x1="2139.0176" y1="1303.7544" x2="2108.2014" y2="1348.5543" gradientTransform="matrix(0.9354 -0.3537 0.3537 0.9354 -1113.3958 620.4144)">
					<stop  offset="7.676977e-02" style="stop-color:#487E9F"/>
					<stop  offset="0.2314" style="stop-color:#79A6D9"/>
					<stop  offset="0.625" style="stop-color:#77AEC5"/>
					<stop  offset="0.7008" style="stop-color:#8CB4C6"/>
					<stop  offset="0.8012" style="stop-color:#A0B9C6"/>
					<stop  offset="0.9013" style="stop-color:#ACBDC7"/>
					<stop  offset="1" style="stop-color:#B0BEC7"/>
				</linearGradient>
				<path fill="url(#SVGID_6_)" d="M1305.4,1126.3l39.6,16.1c0,0,40.5-17.8,29.9-62.2l0.8-7.8l-42.7-1.2L1305.4,1126.3z"/>
				<linearGradient id="SVGID_7_" gradientUnits="userSpaceOnUse" x1="402.8486" y1="1127.2881" x2="306.4684" y2="1101.8953">
					<stop  offset="7.676977e-02" style="stop-color:#487E9F"/>
					<stop  offset="0.2314" style="stop-color:#79A6D9"/>
					<stop  offset="0.625" style="stop-color:#77AEC5"/>
					<stop  offset="0.7008" style="stop-color:#8CB4C6"/>
					<stop  offset="0.8012" style="stop-color:#A0B9C6"/>
					<stop  offset="0.9013" style="stop-color:#ACBDC7"/>
					<stop  offset="1" style="stop-color:#B0BEC7"/>
				</linearGradient>
				<path fill="url(#SVGID_7_)" d="M330.2,1078.3c0,0-43.9,50.1-40.7,65.8c3.1,15.7,87.7,18.8,144.1-9.4l3.1-50.1L330.2,1078.3z"/>
				
					<linearGradient id="SVGID_8_" gradientUnits="userSpaceOnUse" x1="2113.4258" y1="2425.0444" x2="2017.0457" y2="2399.6516" gradientTransform="matrix(0.7153 -0.6988 0.6988 0.7153 -2538.2913 891.9399)">
					<stop  offset="7.676977e-02" style="stop-color:#487E9F"/>
					<stop  offset="0.2314" style="stop-color:#79A6D9"/>
					<stop  offset="0.625" style="stop-color:#77AEC5"/>
					<stop  offset="0.7008" style="stop-color:#8CB4C6"/>
					<stop  offset="0.8012" style="stop-color:#A0B9C6"/>
					<stop  offset="0.9013" style="stop-color:#ACBDC7"/>
					<stop  offset="1" style="stop-color:#B0BEC7"/>
				</linearGradient>
				<path fill="url(#SVGID_8_)" d="M581.9,1165.6c0,0,3.7,66.5,16.8,75.5c13.2,9,75.9-47.9,96.5-107.4l-32.8-38L581.9,1165.6z"/>
				<path fill="#F18B91" d="M963,1078.3c0,0,134.7,75.2,219.3,21.9c0,0,115.9,21.9,122.2,31.3c0,0,37.6-43.9,31.3-62.7l-100.2-59.5
					l-197.4-87.7l-144.1,47l-153.5,12.5C740.6,981.2,887.9,1100.2,963,1078.3z"/>
				<path fill="#F18B91" d="M540.1,843.3c0,0-75.2,53.3-103.4,103.4c0,0-84.6,78.3-106.5,131.6c0,0,37.6,47,109.6,18.8
					c0,0,40.7-81.5,43.9-97.1c3.1-15.7,90.9-31.3,103.4-40.7C599.6,949.9,540.1,843.3,540.1,843.3z"/>
				<path fill="#F18B91" d="M490,733.7c0,0,75.2,47,50.1,109.6c0,0-72.1,241.2,291.4,241.2L605.9,661.6L490,733.7z"/>
				<linearGradient id="SVGID_9_" gradientUnits="userSpaceOnUse" x1="212.1582" y1="708.228" x2="1464.291" y2="708.228">
					<stop  offset="0" style="stop-color:#FBE5E3"/>
					<stop  offset="1" style="stop-color:#F5BABB"/>
				</linearGradient>
				<path fill="url(#SVGID_9_)" d="M690.5,536.3c0,0-68.9-65.8-94-119c-25.1-53.3-178.6-153.5-285.1-12.5c0,0-59.5,90.9-28.2,169.2
					c0,0-94,59.5-65.8,100.2c0,0-3.1,94,137.8,56.4c0,0,37.6,34.5,87.7,3.1c0,0,68.9,18.8,141-47c0,0,28.2,103.4,0,147.2
					c-28.2,43.9-28.2,175.4,53.3,206.8c0,0,241.2,106.5,441.7-15.7c0,0,115.9,65.8,222.4-6.3c0,0,65.8,34.5,84.6,50.1
					c0,0,68.9-6.3,78.3-56.4c0,0-181.7-144.1-191.1-260c0,0-34.5-115.9-219.3-87.7C1053.9,664.8,865.9,733.7,690.5,536.3z"/>
				<linearGradient id="SVGID_10_" gradientUnits="userSpaceOnUse" x1="515.0508" y1="989.7935" x2="775.0732" y2="989.7935">
					<stop  offset="0" style="stop-color:#FBE5E3"/>
					<stop  offset="1" style="stop-color:#F5BABB"/>
				</linearGradient>
				<path fill="url(#SVGID_10_)" d="M593.4,871.5c0,0-78.3,128.4-78.3,141c0,12.5,43.9,103.4,47,106.5c3.1,3.1,15.7,40.7,15.7,40.7
					s84.6,18.8,97.1-31.3c0,0,3.1-81.5-62.7-112.8c0,0,162.9,62.7,162.9-106.5C775.1,740,631,849.6,593.4,871.5z"/>
				<path fill="#F18B91" d="M656,1053.2c0,0-37.6-43.9-43.9-37.6c0,0,131.6,25.1,166-50.1c0,0-31.3,75.2-94,72.1
					c0,0,28.2,31.3,94,40.7C778.2,1078.3,671.7,1056.4,656,1053.2z"/>
				<path fill="#F18B91" d="M1079,1025.1c0,0-112.8-25.1-125.3-90.9c0,0,191.1,169.2,335.2,59.5c0,0,109.6,65.8,119,65.8
					c0,0,12.5,9.4-21.9,9.4l-84.6-50.1C1301.4,1018.8,1207.4,1103.4,1079,1025.1z"/>
				<path fill="#F18B91" d="M230,711.2c0,0,84.6,90.9,162.9-43.9C392.9,667.4,336.5,827.2,230,711.2z"/>
				<path fill="#F18B91" d="M370.9,646c0,0,18.8,28.2,65.8-6.3C436.7,639.7,399.1,699.2,370.9,646z"/>
				<path fill="#FEF9F0" d="M286.4,586.5c0,0-78.3,62.7-53.3,78.3C258.2,680.4,270.7,589.6,286.4,586.5z"/>
				<path fill="#FEF9F0" d="M342.7,392.2c0,0-75.2,97.1-40.7,159.8C302,552,298.9,520.7,342.7,392.2z"/>
				<path fill="#FEF9F0" d="M530.7,1018.8c0,0,43.9,137.8,65.8,122.2C618.4,1125.3,552.6,1028.2,530.7,1018.8z"/>
				<path fill="#FEF9F0" d="M668.6,846.5c0,0-141,144.1-122.2,144.1S659.2,868.4,668.6,846.5z"/>
				<path fill="#F7A9B0" d="M370.9,705.5c0,0,21.9,31.3,72.1-3.1c0,0,203.6-3.1,144.1-209.9c0,0,94,103.4-3.1,194.2
					c0,0-47,59.5-141,47c0,0-37.6,31.3-87.7-3.1L370.9,705.5z"/>
				<path fill="#F7A9B0" d="M762.5,852.7c0,0-53.3,166-159.8,147.2c0,0,0,21.9,21.9,18.8C624.7,1018.8,853.4,1062.6,762.5,852.7z"/>
				<path fill="#F7A9B0" d="M684.2,1037.6c0,0,43.9,68.9,256.9,43.9c0,0,112.8-25.1,137.8-56.4c0,0-87.7-28.2-100.2-43.9
					c0,0-141,43.9-191.1-43.9C787.6,937.3,759.4,1034.4,684.2,1037.6z"/>
				<path fill="#F7A9B0" d="M546.4,705.5c0,0,34.5,47,28.2,97.1c0,0-31.3,59.5-18.8,125.3c0,0,50.1-72.1,100.2-90.9
					c0,0-53.3,43.9-53.3,6.3s9.4-128.4-21.9-166L546.4,705.5z"/>
				<path fill="#F7A9B0" d="M436.7,946.7c0,0,37.6-68.9,103.4-103.4c0,0-78.3,84.6-75.2,115.9c0,0-3.1,40.7-31.3,47
					c0,0-59.5,37.6-59.5,94c0,0-43.9-6.3-43.9-21.9C330.2,1078.3,374.1,981.2,436.7,946.7z"/>
				<path fill="#F7A9B0" d="M953.6,934.2c0,0,178.6,175.4,335.2,59.5c0,0,100.3,68.9,119,65.8c0,0,25.1,3.1,34.5-15.7
					c0,0-131.6-65.8-141-103.4c-9.4-37.6-9.4-72.1-25.1-84.6c0,0,37.6,131.6-84.6,115.9c-122.2-15.7-235-59.5-184.8-178.6
					C1006.9,793.2,850.3,824.5,953.6,934.2z"/>
				<path fill="#FEF9F0" d="M1016.3,852.7c0,0,37.6,141,206.8,97.1c0,0,28.2-6.3-25.1-15.7C1144.7,924.8,1079,943.6,1016.3,852.7z"
					/>
				
					<ellipse transform="matrix(0.9501 -0.3121 0.3121 0.9501 -195.4757 126.9721)" fill="#F18B91" cx="299" cy="674.2" rx="28.2" ry="14.1"/>
				<path fill="#F7A9B0" d="M363.4,548.8c0,0-8.4-133.7,121.2-75.2C484.6,473.6,509.7,619.8,363.4,548.8z"/>
				<path fill="#FFFFFF" d="M363.4,548.8c0,0,10.4-104.4,112.8-68.9C476.2,479.9,492.9,590.6,363.4,548.8z"/>
				<path fill="#FFFFFF" d="M386.4,514.3c0-9.4,2.4-18.3,6.5-26.1c-25.7,22.3-29.5,60.6-29.5,60.6c17.2,5.6,31.9,8.4,44.3,9.2
					C394.8,547.9,386.4,532.1,386.4,514.3z"/>
				<path fill="#C5F4EB" d="M476.2,479.9c-40.4-14-66.5-6.2-83.3,8.4c-4.2,7.8-6.5,16.7-6.5,26.1c0,17.7,8.3,33.5,21.3,43.7
					C488.8,563.1,476.2,479.9,476.2,479.9z"/>
				<g>
					<defs>
						<path id="SVGID_11_" d="M476.2,479.9c-40.4-14-66.5-6.2-83.3,8.4c-4.2,7.8-6.5,16.7-6.5,26.1c0,17.7,8.3,33.5,21.3,43.7
							C488.8,563.1,476.2,479.9,476.2,479.9z"/>
					</defs>
					<clipPath id="SVGID_12_">
						<use xlink:href="#SVGID_11_"  overflow="visible"/>
					</clipPath>
					<circle clip-path="url(#SVGID_12_)" fill="#347E76" cx="453.8" cy="509.1" r="52.2"/>
					<circle clip-path="url(#SVGID_12_)" fill="#0B2D60" cx="453.3" cy="507" r="37.6"/>
				</g>
				<circle fill="#C5F4EB" cx="416.7" cy="497.6" r="11.5"/>
				<circle fill="#061935" cx="454.3" cy="506" r="13.6"/>
				<path fill="#061935" d="M363.4,548.8c0,0-2.1-75.2,54.3-85.6c0,0,60.6,14.6,77.3-6.3c0,0-2.1,23-27.2,25.1
					C467.9,481.9,384.3,444.3,363.4,548.8z"/>
				<path fill="#FEF9F0" d="M463.7,653.2c0,0,14.6,43.9,75.2-4.2C538.9,649.1,520.1,653.2,463.7,653.2z"/>
				<linearGradient id="SVGID_13_" gradientUnits="userSpaceOnUse" x1="183.7803" y1="365.1792" x2="499.2119" y2="365.1792">
					<stop  offset="0" style="stop-color:#EF88B9"/>
					<stop  offset="0.6105" style="stop-color:#ED5084"/>
					<stop  offset="0.9046" style="stop-color:#CE3F5A"/>
				</linearGradient>
				<path fill="url(#SVGID_13_)" d="M499.2,264.7c0,0-66.8-68.9-167.1,14.6c0,0-37.6-23-52.2,20.9c0,0-2.1,167.1-96.1,140
					c0,0,16.7,46,66.8,23c0,0-10.4,20.9-41.8,20.9c0,0,60.6,33.4,100.3-33.4c0,0,29.2-35.5,48-33.4s104.4,2.1,106.5-79.4
					C463.7,337.8,478.3,277.2,499.2,264.7z"/>
				<path fill="#F29CBC" d="M359.3,289.8c0,0-16.7-8.4-25.1,20.9c-8.4,29.2-41.8,127.4-77.3,133.7c0,0,27.2,14.6,50.1-27.2
					c0,0,46-94,60.6-94c0,0,20.9,58.5-14.6,71c0,0,60.6,12.5,43.9-87.7c0,0-8.4-56.4,33.4-62.7C430.3,243.8,376,233.4,359.3,289.8z"
					/>
				<path fill="#F29CBC" d="M215.1,452.7c0,0,64.8-4.2,75.2-89.8C290.3,362.9,259,440.2,215.1,452.7z"/>
				<linearGradient id="SVGID_14_" gradientUnits="userSpaceOnUse" x1="836.9287" y1="429.603" x2="679.057" y2="609.5159">
					<stop  offset="0" style="stop-color:#EF88B9"/>
					<stop  offset="0.6105" style="stop-color:#ED5084"/>
					<stop  offset="0.9046" style="stop-color:#CE3F5A"/>
				</linearGradient>
				<path fill="url(#SVGID_14_)" d="M557.7,298.1c0,0,6.3,52.2-14.6,75.2c0,0,104.4,123.2,114.9,158.8c0,0,29.2,158.8,125.3,140
					l-4.2-16.7c0,0-52.2-29.2-54.3-68.9c0,0,66.8,62.7,66.8,110.7c0,0,58.5,131.6,144.1,41.8c0,0,23-33.4,46-35.5
					s39.7-37.6,12.5-58.5c0,0-12.5,54.3-50.1,39.7c-37.6-14.6-60.6-56.4-54.3-91.9c6.3-35.5,14.6-169.2-64.8-213.1
					C825.1,379.6,714.4,260.5,557.7,298.1z"/>
				<linearGradient id="SVGID_15_" gradientUnits="userSpaceOnUse" x1="461.6113" y1="324.5552" x2="557.7334" y2="324.5552">
					<stop  offset="0" style="stop-color:#FBE5E3"/>
					<stop  offset="1" style="stop-color:#F5BABB"/>
				</linearGradient>
				<path fill="url(#SVGID_15_)" d="M461.6,356.6c0,0,14.6-110.2,75.2-119.1c0,0,52.2,104.4-8.4,152.5
					C467.9,438.1,480.4,396.3,461.6,356.6z"/>
				<path fill="#F18B91" d="M505.5,293.9c0,0-20.9,20.9-20.9,64.8c0,43.9,37.6,10.4,37.6,10.4S541,296,505.5,293.9z"/>
				<path fill="#F18B91" d="M536.8,237.5c0,0,25.1,121.2-8.4,152.5C528.5,390,591.1,348.3,536.8,237.5z"/>
				<path fill="#F29CBC" d="M783.3,672c0,0-117-20.9-94-165c0,0,35.5-100.3-33.4-156.7c0,0,89.8,41.8,52.2,181.7
					c0,0-8.4,114.9,83.6,123.2C791.7,655.3,802.1,672,783.3,672z"/>
				<path fill="#F29CBC" d="M609.9,331.5c0,0,77.3,66.8,62.7,171.3c0,0-14.6,18.8-16.7-4.2C653.8,475.7,649.6,377.5,609.9,331.5z"/>
				<path fill="#D54362" d="M783.3,672c0,0-18.8-39.7-58.5-85.6c0,0-20.9-56.4,0-102.4c0,0,14.6-106.5-41.8-140
					c0,0,83.6,16.7,62.7,140c0,0-18.8,100.3,60.6,160.8c0,0,20.9,125.3,94,121.2C900.3,766,814.6,809.9,783.3,672z"/>
				<path fill="#D54362" d="M770.8,456.9c0,0-33.4,79.4,27.2,137.9c0,0,50.1,58.5,50.1,94s31.3,102.4,87.7,50.1
					c0,0-71,39.7-68.9-58.5c0,0,10.4-66.8-37.6-121.2c0,0,23,66.8,8.4,54.3C823,601,754.1,561.3,770.8,456.9z"/>
				<path fill="#D54362" d="M994.3,644.9c0,0,20.9,87.7-81.5,52.2C912.8,697.1,1069.5,745.2,994.3,644.9z"/>
				<path fill="#D54362" d="M578.6,304.4c0,0,179.6-25.1,242.3,106.5C820.9,410.9,729,325.3,578.6,304.4z"/>
				<path fill="#D54362" d="M737.4,344.1c0,0,81.5,68.9,81.5,142c0,0,16.7-54.3-41.8-119.1L737.4,344.1z"/>
				<path fill="#F29CBC" d="M839.7,438.1c0,0,37.6,39.7,31.3,137.9c0,0,33.4-117-46-183.8L839.7,438.1z"/>
				<path fill="#F29CBC" d="M762.4,387.9c0,0,52.2,50.1,54.3,162.9c0,0-20.9-2.1-35.5-41.8c0,0,14.6,23,16.7,8.4
					C800,502.8,777,406.7,762.4,387.9z"/>
				<path fill="#F29CBC" d="M843.9,557.1c0,0,48,56.4,37.6,123.2c0,0-6.3,37.6,46,37.6c0,0-31.3-2.1-33.4-37.6
					C894,680.4,894,588.5,843.9,557.1z"/>
				<linearGradient id="SVGID_16_" gradientUnits="userSpaceOnUse" x1="1479.8428" y1="937.3311" x2="1479.8428" y2="764.7772">
					<stop  offset="9.544403e-02" style="stop-color:#CE3F5A"/>
					<stop  offset="0.3895" style="stop-color:#ED5084"/>
					<stop  offset="1" style="stop-color:#EF88B9"/>
				</linearGradient>
				<path fill="url(#SVGID_16_)" d="M1326.4,765c0,0-9.4,150.4,94,153.5c0,0,90.9,25.1,106.5-94c0,0,25.1-37.6,53.3-9.4
					c28.2,28.2,53.3-18.8,53.3-18.8s-31.3,3.1-43.9-18.8c-12.5-21.9-62.7-59.5-87.7-21.9c0,0-37.6-15.7-43.9,9.4
					C1458,765,1389.1,887.2,1326.4,765z"/>
				<path fill="#D54362" d="M1232.5,680.4c0,0,68.9-68.9,134.7,3.1c0,0-43.9-31.3-94-12.5c0,0,65.8-6.3,87.7,68.9
					c0,0-9.4-43.9-56.4-43.9c0,0,34.5,18.8,31.3,72.1c0,0,9.4,78.3,84.6,50.1c0,0-84.6,37.6-94-53.3c0,0-18.8-65.8-68.9-37.6
					c0,0-22-34.5-53.3-50.2L1232.5,680.4z"/>
				<path fill="#D54362" d="M1418.9,888.8c0,0,79.9,43.9,86.2-62.7c0,0,4.7-87.7,75.2-42.3c0,0-42.3-53.3-75.2,4.7l-12.5,32.9
					c0,0-7.8-37.6,3.1-50.1c0,0-25.1,3.1-11,68.9C1484.7,840.2,1489.4,907.6,1418.9,888.8z"/>
				<path fill="#D54362" d="M1364,846.5c0,0,32.9,61.1,98.7,18.8C1462.8,865.3,1404.8,885.7,1364,846.5z"/>
				<path fill="#D54362" d="M1381.3,891.9c0,0,67.4,47,111.2-17.2C1492.5,874.7,1448.6,918.5,1381.3,891.9z"/>
				<path fill="#D54362" d="M1370.3,700.7c0,0,23.5,25.1,29.8,51.7c6.3,26.6,25.1,64.2,50.1,32.9c0,0-25.1,51.7-54.8-14.1
					C1395.4,771.2,1387.5,724.2,1370.3,700.7z"/>
				<path fill="#F29CBC" d="M1262.2,630.2c0,0,48.6-65.8,158.3,61.1c0,0-75.2-78.3-159.8-45.4
					C1260.6,645.9,1248.1,638.1,1262.2,630.2z"/>
				<path fill="#F29CBC" d="M1340.5,681.9c0,0,31.3,14.1,43.9,56.4c12.5,42.3,17.2,54.8,25.1,58c7.8,3.1-20.4,3.1-31.3-28.2
					C1367.2,736.8,1349.9,692.9,1340.5,681.9z"/>
				<path fill="#F29CBC" d="M1398.5,844.9c0,0,45.4,23.5,61.1,1.6c15.7-21.9,17.2-40.7,14.1-54.8c-3.1-14.1-3.1,31.3-18.8,32.9
					S1379.7,829.2,1398.5,844.9z"/>
				<path fill="#F29CBC" d="M1387.5,688.2c0,0,17.2,18.8,31.3,54.8c14.1,36,29.8,34.5,37.6,14.1c0,0-18.8,4.7-20.4-11
					S1415.7,699.2,1387.5,688.2z"/>
				<path fill="#F29CBC" d="M1522.3,804.2c0,0,12.5-50.1,67.4-4.7C1589.7,799.5,1558.3,777.5,1522.3,804.2z"/>
				<path fill="#F29CBC" d="M1497.2,782.2c0,0,18.8-72.1,73.6-18.8C1570.9,763.4,1533.3,735.2,1497.2,782.2z"/>
				<path fill="#F29CBC" d="M1414.2,833.9c0,0,39.2-9.4,43.9-51.7C1458.1,782.2,1465.9,848,1414.2,833.9z"/>
			</g>
			<path fill="#F7A9B0" d="M1090.4,657.4c0,0,179.7,14.6,196.4,158.8C1286.7,816.2,1309.7,651.1,1090.4,657.4z"/>
			<path fill="#F7A9B0" d="M230,711.2c0,0,83.3,98.7,156.4-39.2c0,0-79.4,123.2-158.8,12.5C227.6,684.6,215.6,689.9,230,711.2z"/>
			<path fill="#FEF9F0" d="M465.8,377.5c0,0,10.4-112.8,56.4-121.2c0,0,6.3,8.4-2.1,14.6C520.1,271,478.3,300.2,465.8,377.5z"/>
			<path fill="#FEF9F0" d="M509.7,488.2c0,0,8.4,52.2-23,75.2c-31.3,23-18.8,27.2-8.4,29.2C488.8,594.7,549.3,555.1,509.7,488.2z"/>
		</g>
		<path fill="#66EBEF" d="M849.8,194c0,0-56.4,147.2,0,137.8C906.2,322.4,849.8,194,849.8,194z"/>
		<path fill="#66EBEF" d="M868.6,197.1c0,0,31.3,153.5,47,97.1C931.2,237.8,909.3,165.8,868.6,197.1z"/>
		<path fill="#66EBEF" d="M931.2,294.2L906.2,454C906.2,454,981.3,353.8,931.2,294.2z"/>
		<path fill="#66EBEF" d="M824.7,341.2c0,0,43.9,28.2,56.4-9.4l6.3,90.9C887.4,422.7,834.1,338.1,824.7,341.2z"/>
	</g>
</g>
</svg>
